<?xml version="1.0" standalone="no"?>
<!DOCTYPE svg PUBLIC "-//W3C//DTD SVG 20010904//EN"
 "http://www.w3.org/TR/2001/REC-SVG-20010904/DTD/svg10.dtd">
<svg version="1.0" xmlns="http://www.w3.org/2000/svg"
 width="262.000000pt" height="151.000000pt" viewBox="0 0 262.000000 151.000000"
 preserveAspectRatio="xMidYMid meet">
<metadata>
Created by potrace 1.16, written by Peter Selinger 2001-2019
</metadata>
<g transform="translate(0.000000,151.000000) scale(0.100000,-0.100000)"
fill="#000000" stroke="none">
<path d="M0 755 l0 -755 1310 0 1310 0 0 755 0 755 -1310 0 -1310 0 0 -755z
m1710 664 c289 -35 441 -150 674 -509 71 -109 140 -277 134 -326 -7 -60 -108
-94 -283 -94 -178 0 -264 19 -528 116 -149 55 -210 69 -512 113 -77 12 -255
39 -395 61 -140 22 -258 40 -262 40 -11 0 -10 354 1 383 13 32 59 49 246 87
83 17 175 37 205 45 30 7 125 28 210 45 241 49 362 58 510 39z m-1228 -386
c-2 -104 -6 -191 -10 -195 -4 -4 -97 6 -207 22 -110 17 -203 30 -207 30 -5 0
-8 16 -8 36 0 29 3 35 16 30 23 -9 54 12 55 37 1 20 2 20 6 2 8 -31 23 -45 49
-45 14 0 25 8 29 20 11 36 8 81 -6 95 -19 18 -57 3 -69 -27 -5 -14 -9 -17 -9
-7 -1 26 -21 38 -47 29 -22 -9 -24 -7 -24 24 0 18 6 38 12 43 7 6 92 27 188
47 96 21 180 39 185 41 6 2 19 4 30 4 19 1 20 -4 17 -186z m-230 -223 c252
-42 228 -33 228 -85 0 -42 -1 -44 -32 -47 -38 -4 -50 -31 -20 -47 28 -15 165
-50 174 -45 21 13 6 45 -29 61 -35 17 -38 22 -41 66 -2 27 1 47 7 47 5 0 171
-27 368 -60 197 -33 426 -71 508 -84 123 -21 176 -35 294 -81 239 -93 265 -99
496 -99 144 -1 211 3 238 12 21 8 41 12 44 9 10 -11 -39 -67 -80 -92 -92 -53
-320 -71 -517 -40 -182 29 -193 30 -214 6 -10 -11 -16 -27 -13 -34 3 -8 41
-23 84 -34 200 -52 526 -144 558 -157 23 -10 35 -22 35 -34 0 -29 -23 -33 -82
-15 -29 8 -73 21 -98 28 -68 19 -367 108 -520 155 -74 23 -193 59 -265 80 -71
21 -175 52 -230 68 -55 17 -185 55 -290 85 -104 30 -244 72 -310 92 -66 20
-174 53 -240 72 -236 68 -255 74 -255 83 0 6 13 10 29 10 44 0 46 15 6 39 -25
15 -35 27 -35 46 0 14 4 25 10 25 5 0 92 -14 192 -30z"/>
<path d="M1655 1290 c-84 -9 -101 -15 -108 -41 -9 -34 98 -169 189 -239 89
-67 155 -85 324 -85 159 0 220 15 220 53 0 25 -113 174 -179 235 -28 27 -68
55 -88 63 -42 18 -246 26 -358 14z"/>
<path d="M1182 1184 c-21 -15 -22 -21 -22 -193 0 -126 4 -182 13 -193 18 -24
78 -32 102 -14 18 13 20 28 23 195 2 117 -1 187 -8 200 -13 26 -75 29 -108 5z"/>
<path d="M926 1155 c-13 -13 -16 -38 -16 -115 0 -57 4 -102 10 -105 22 -13
117 -17 139 -6 21 11 22 18 19 124 l-3 112 -66 3 c-51 2 -71 -1 -83 -13z"/>
<path d="M740 1130 c-28 -28 -30 -166 -2 -186 21 -17 104 -18 120 -2 13 13 17
163 6 192 -10 25 -98 22 -124 -4z"/>
<path d="M592 1114 c-19 -13 -22 -24 -22 -83 0 -39 5 -72 12 -79 13 -13 76
-16 96 -4 15 10 23 152 9 170 -13 17 -68 15 -95 -4z"/>
<path d="M1857 833 c-13 -12 -7 -21 39 -68 66 -65 150 -104 195 -90 32 10 22
43 -29 94 -39 39 -59 51 -101 60 -59 13 -95 14 -104 4z"/>
<path d="M375 1097 c-40 -13 -44 -21 -41 -85 3 -58 14 -72 58 -72 35 0 48 24
48 88 0 62 -21 84 -65 69z"/>
<path d="M815 560 c-15 -16 -15 -22 -5 -35 7 -8 19 -15 27 -15 8 0 110 -27
228 -60 118 -33 226 -60 241 -60 24 0 26 3 19 28 -3 15 -12 32 -18 38 -10 9
-445 125 -468 124 -3 0 -14 -9 -24 -20z"/>
</g>
</svg>
